<?xml version="1.0" encoding="utf-8"?>
<!-- Generator: Adobe Illustrator 27.5.0, SVG Export Plug-In . SVG Version: 6.00 Build 0)  -->
<svg className="" version="1.1" id="Layer_1" xmlns="http://www.w3.org/2000/svg" xmlns:xlink="http://www.w3.org/1999/xlink" x="0px" y="0px"
	 viewBox="0 0 464 582.8" style="enable-background:new 0 0 464 582.8;" xml:space="preserve">
<style type="text/css">
	.st0{fill:#FFFFFF;}
	.st1{fill:#697570;}
</style>
<g>
	<path class="st0" d="M232.1,0.3C104.1,0.3,0,104,0,231.4v119.9c0,127.4,104.1,231.1,232.1,231.1s232.1-103.7,232.1-231.1V231.4
		C464.2,104,360.1,0.3,232.1,0.3z"/>
	<path class="st1" d="M235.2,346.9c-10.6,0-18.1,0-22.5,0V413c2.4,0,6.3,0,11.6,0.1c5.3,0.1,9.4,0.1,12.2,0.1c6,0,11.3-0.9,15.8-2.8
		c4.5-1.9,7.9-4.4,10.4-7.5c2.4-3.1,4.3-6.6,5.5-10.5c1.2-3.8,1.8-8.1,1.8-12.7c0-9.2-3-17-8.9-23.4
		C255.1,349.9,246.4,346.8,235.2,346.9z"/>
	<path class="st1" d="M232,35.9c-111.9,0-202.9,91-202.9,202.9v105.3c0,111.9,91,202.9,202.9,202.9s202.9-91,202.9-202.9V238.8
		C434.9,126.9,343.9,35.9,232,35.9z M191.7,227.2c5.1,5.4,7.6,11.7,7.6,18.8v39.2h-9.4v-41.5c0-4.1-1-7.9-3.1-11.4
		c-2.1-3.5-4.8-6.3-8.4-8.4c-3.5-2-7.3-3.1-11.4-3.1h-14.8c-1.3,0-2.6,0-3.8,0h-15v64.4h-9.4V150.2h40.3c11,0.5,19.7,4.1,26.1,10.9
		c6.4,6.7,9.6,14.7,9.6,23.9c0,17.9-8.9,29.1-26.7,33.6C180.5,218.9,186.6,221.8,191.7,227.2z M276.2,395.5c-2.1,4.5-4.8,8-8,10.6
		c-3.2,2.6-7.2,4.6-11.9,6.1c-4.7,1.5-9.3,2.4-13.7,2.9c-4.4,0.4-9.4,0.6-14.9,0.5h-15v64.4h-9.4V344.8h40.3
		c7.4,0.3,13.9,2.1,19.4,5.6c5.5,3.5,9.6,7.7,12.3,12.8s4,10.5,4,16.4C279.4,385.7,278.3,391,276.2,395.5z M358.9,285.2h-70.1V150.2
		h9.4v132.7h60.7V285.2z"/>
	<path class="st1" d="M181.7,161.7c-6-6.4-14.6-9.5-25.8-9.4c-10.6,0-18.1,0-22.5,0v66.1c2.4,0,6,0,10.8,0.1
		c4.7,0.1,8.2,0.1,10.4,0.1h1.5h1.2c6,0,11.3-0.9,15.8-2.8c4.5-1.9,7.9-4.4,10.4-7.5c2.4-3.1,4.3-6.6,5.5-10.5
		c1.2-3.8,1.8-8.1,1.8-12.7C190.6,175.9,187.6,168.1,181.7,161.7z"/>
	<path class="st1" d="M232,0L232,0C103.9,0,0,103.9,0,232v118.8c0,128.1,103.9,232,232,232h0c128.1,0,232-103.9,232-232V232
		C464,103.9,360.1,0,232,0z M440.3,344.1c0,114.8-93.4,208.3-208.3,208.3c-114.8,0-208.3-93.4-208.3-208.3V238.8
		c0-114.8,93.4-208.3,208.3-208.3c114.8,0,208.3,93.4,208.3,208.3V344.1z"/>
</g>
</svg>
